<svg width="1920" height="1080" viewBox="0 0 1920 1080" fill="none" xmlns="http://www.w3.org/2000/svg">
<rect width="1920" height="1080" fill="white"/>
<path d="M1173.63 428.198C1179.88 421.95 1190.01 421.95 1196.26 428.198C1202.51 434.447 1202.51 444.577 1196.26 450.826L1151.32 495.767L1128.69 473.139L1173.63 428.198Z" fill="#353535"/>
<path d="M1106.34 495.735L1128.97 518.362L1084.03 563.303C1077.78 569.552 1067.65 569.552 1061.4 563.303C1055.15 557.055 1055.15 546.924 1061.4 540.676L1106.34 495.735Z" fill="#353535"/>
<path d="M1196.69 541.04C1202.93 547.288 1202.93 557.419 1196.69 563.667C1190.44 569.916 1180.31 569.916 1174.06 563.667L1129.12 518.726L1151.75 496.099L1196.69 541.04Z" fill="#353535"/>
<path d="M1152.09 496.441L1129.2 519.324L1061.17 451.286C1054.85 444.967 1054.85 434.721 1061.17 428.402C1067.48 422.083 1077.73 422.083 1084.05 428.402L1152.09 496.441Z" fill="#353535"/>
<path d="M1152.36 496.48L1129.74 519.108L1061.57 450.941C1055.32 444.693 1055.32 434.562 1061.57 428.314C1067.82 422.065 1077.95 422.065 1084.2 428.314L1152.36 496.48Z" fill="#353535"/>
<path d="M980.32 438.036L986.266 423.181L980.32 438.036ZM934.395 438.036L940.34 452.89L940.34 452.89L934.395 438.036ZM914.928 450.605L903.81 439.099L903.81 439.099L914.928 450.605ZM901.921 469.415L887.215 463.111L901.921 469.415ZM1033.36 491.604C1033.36 481.811 1031.37 472.127 1027.5 463.111L998.089 475.719C1000.25 480.772 1001.36 486.168 1001.36 491.604H1033.36ZM1027.5 463.111C1023.64 454.097 1017.99 445.942 1010.91 439.099L988.669 462.111C992.731 466.035 995.922 470.664 998.089 475.719L1027.5 463.111ZM1010.91 439.099C1003.82 432.256 995.447 426.856 986.266 423.181L974.375 452.89C979.754 455.043 984.606 458.185 988.669 462.111L1010.91 439.099ZM986.266 423.181C977.085 419.507 967.264 417.622 957.358 417.622V449.622C963.211 449.622 968.995 450.737 974.375 452.89L986.266 423.181ZM957.358 417.622C947.451 417.622 937.63 419.507 928.45 423.181L940.34 452.89C945.72 450.737 951.504 449.622 957.358 449.622V417.622ZM928.45 423.181C919.268 426.856 910.891 432.256 903.81 439.099L926.046 462.111C930.109 458.185 934.961 455.043 940.34 452.89L928.45 423.181ZM903.81 439.099C896.728 445.942 891.079 454.097 887.215 463.111L916.627 475.719C918.793 470.664 921.985 466.035 926.046 462.111L903.81 439.099ZM887.215 463.111C883.35 472.127 881.353 481.811 881.353 491.604H913.353C913.353 486.168 914.46 480.772 916.627 475.719L887.215 463.111ZM1001.36 491.604V569.812H1033.36V491.604H1001.36ZM881.353 491.604V569.812H913.353V491.604H881.353Z" fill="#353535"/>
<circle cx="788.949" cy="491.949" r="59.8179" stroke="#E85E21" stroke-width="32.2613"/>
<circle cx="788.908" cy="492.133" r="22.5778" fill="#2D348D"/>
<path d="M952.581 649.616V605.554H957.658V621.819H958.089C958.462 621.245 958.978 620.514 959.638 619.624C960.312 618.721 961.273 617.918 962.521 617.215C963.783 616.498 965.49 616.139 967.641 616.139C970.424 616.139 972.876 616.835 974.999 618.226C977.122 619.617 978.779 621.59 979.969 624.143C981.16 626.696 981.755 629.708 981.755 633.179C981.755 636.679 981.16 639.712 979.969 642.28C978.779 644.833 977.129 646.812 975.021 648.218C972.912 649.609 970.481 650.305 967.727 650.305C965.604 650.305 963.905 649.953 962.628 649.25C961.352 648.533 960.369 647.723 959.681 646.819C958.992 645.901 958.462 645.141 958.089 644.539H957.486V649.616H952.581ZM957.572 633.093C957.572 635.589 957.938 637.79 958.67 639.698C959.401 641.591 960.47 643.076 961.875 644.151C963.281 645.213 965.002 645.744 967.039 645.744C969.162 645.744 970.933 645.184 972.353 644.065C973.787 642.932 974.863 641.412 975.58 639.504C976.312 637.582 976.677 635.445 976.677 633.093C976.677 630.769 976.319 628.675 975.602 626.81C974.899 624.931 973.83 623.447 972.396 622.357C970.976 621.252 969.19 620.7 967.039 620.7C964.973 620.7 963.238 621.224 961.832 622.271C960.427 623.304 959.365 624.752 958.648 626.617C957.931 628.467 957.572 630.626 957.572 633.093ZM991.609 662.009C990.748 662.009 989.981 661.937 989.307 661.794C988.633 661.665 988.166 661.535 987.908 661.406L989.199 656.931C990.433 657.247 991.523 657.362 992.469 657.276C993.416 657.189 994.255 656.766 994.987 656.006C995.732 655.26 996.414 654.048 997.031 652.37L997.977 649.788L985.757 616.569H991.265L1000.39 642.904H1000.73L1009.85 616.569H1015.36L1001.33 654.436C1000.7 656.142 999.921 657.555 998.988 658.674C998.056 659.807 996.973 660.646 995.74 661.191C994.52 661.736 993.143 662.009 991.609 662.009ZM1041.6 649.616H1036L1052.18 605.554H1057.69L1073.87 649.616H1068.28L1055.11 612.525H1054.77L1041.6 649.616ZM1043.66 632.404H1066.21V637.138H1043.66V632.404ZM1083.39 649.616L1073.32 616.569H1078.66L1085.8 641.871H1086.15L1093.2 616.569H1098.62L1105.59 641.785H1105.94L1113.08 616.569H1118.42L1108.35 649.616H1103.36L1096.13 624.229H1095.61L1088.38 649.616H1083.39ZM1125.13 649.616V616.569H1130.21V649.616H1125.13ZM1127.71 611.062C1126.72 611.062 1125.87 610.725 1125.15 610.05C1124.45 609.376 1124.1 608.566 1124.1 607.619C1124.1 606.673 1124.45 605.862 1125.15 605.188C1125.87 604.514 1126.72 604.177 1127.71 604.177C1128.7 604.177 1129.55 604.514 1130.25 605.188C1130.97 605.862 1131.33 606.673 1131.33 607.619C1131.33 608.566 1130.97 609.376 1130.25 610.05C1129.55 610.725 1128.7 611.062 1127.71 611.062ZM1152.85 662.697C1150.39 662.697 1148.29 662.382 1146.52 661.751C1144.76 661.134 1143.29 660.316 1142.11 659.298C1140.95 658.294 1140.02 657.218 1139.34 656.071L1143.38 653.231C1143.84 653.833 1144.42 654.522 1145.12 655.296C1145.83 656.085 1146.79 656.766 1148.01 657.34C1149.24 657.928 1150.85 658.222 1152.85 658.222C1155.51 658.222 1157.72 657.577 1159.45 656.286C1161.19 654.995 1162.05 652.973 1162.05 650.219V643.506H1161.62C1161.25 644.108 1160.72 644.854 1160.03 645.744C1159.36 646.618 1158.38 647.4 1157.11 648.089C1155.84 648.763 1154.14 649.1 1151.99 649.1C1149.32 649.1 1146.92 648.469 1144.8 647.207C1142.69 645.944 1141.02 644.108 1139.79 641.699C1138.57 639.289 1137.96 636.363 1137.96 632.921C1137.96 629.536 1138.55 626.588 1139.74 624.078C1140.93 621.554 1142.59 619.603 1144.71 618.226C1146.84 616.835 1149.29 616.139 1152.07 616.139C1154.22 616.139 1155.93 616.498 1157.19 617.215C1158.47 617.918 1159.44 618.721 1160.12 619.624C1160.81 620.514 1161.34 621.245 1161.71 621.819H1162.23V616.569H1167.13V650.563C1167.13 653.403 1166.49 655.712 1165.2 657.491C1163.92 659.284 1162.2 660.596 1160.03 661.428C1157.88 662.274 1155.49 662.697 1152.85 662.697ZM1152.67 644.539C1154.71 644.539 1156.43 644.073 1157.84 643.14C1159.24 642.208 1160.31 640.867 1161.04 639.117C1161.78 637.367 1162.14 635.273 1162.14 632.835C1162.14 630.454 1161.78 628.352 1161.07 626.531C1160.35 624.709 1159.29 623.282 1157.88 622.249C1156.48 621.217 1154.74 620.7 1152.67 620.7C1150.52 620.7 1148.73 621.245 1147.3 622.335C1145.88 623.425 1144.81 624.888 1144.09 626.724C1143.39 628.56 1143.04 630.597 1143.04 632.835C1143.04 635.13 1143.39 637.159 1144.11 638.923C1144.84 640.673 1145.92 642.05 1147.34 643.054C1148.77 644.044 1150.55 644.539 1152.67 644.539ZM1181.5 629.736V649.616H1176.43V616.569H1181.33V621.733H1181.76C1182.54 620.055 1183.71 618.707 1185.29 617.688C1186.87 616.655 1188.91 616.139 1191.4 616.139C1193.64 616.139 1195.6 616.598 1197.27 617.516C1198.95 618.42 1200.26 619.797 1201.19 621.647C1202.12 623.483 1202.59 625.806 1202.59 628.618V649.616H1197.51V628.962C1197.51 626.366 1196.84 624.343 1195.49 622.895C1194.14 621.432 1192.29 620.7 1189.94 620.7C1188.32 620.7 1186.87 621.052 1185.59 621.754C1184.33 622.457 1183.33 623.483 1182.6 624.831C1181.87 626.179 1181.5 627.814 1181.5 629.736Z" fill="#353535"/>
</svg>
