<svg id="SvgjsSvg1001" width="300" height="300" xmlns="http://www.w3.org/2000/svg" version="1.1" xmlns:xlink="http://www.w3.org/1999/xlink" xmlns:svgjs="http://svgjs.com/svgjs"><path id="SvgjsPath1015" d="M 144,0 C 5,0 0,5 0,144 0,283 5,288 144,288 283,288 288,283 288,144 288,5 283,0 144,0 Z" transform="matrix(0.97,0,0,0.97,4.319999999999993,4.319999999999993)" fill="#405189"></path><defs id="SvgjsDefs1002"></defs><g id="SvgjsG1008" transform="matrix(0.79,0,0,0.79,31.107874603271483,29.960222969055167)"><svg xmlns="http://www.w3.org/2000/svg" viewBox="0 0 24 24" width="288" height="288"><g fill="none" fill-rule="evenodd" stroke="#ffffff" stroke-linecap="round" stroke-linejoin="round" stroke-width="1.5" transform="translate(2.5 1.5)" class="colorStroke200E32 svgStroke"><path d="M14.01373 20.0000001L5.66590392 20.0000001C2.59954235 20.0000001.247139589 18.8924486.915331812 14.4347827L1.69336385 8.39359272C2.10526317 6.16933642 3.52402748 5.31807783 4.76887874 5.31807783L14.9473685 5.31807783C16.2105264 5.31807783 17.5469108 6.23340964 18.0228834 8.39359272L18.8009154 14.4347827C19.3684211 18.3890161 17.0800916 20.0000001 14.01373 20.0000001zM14.1510298 5.09839819C14.1510298 2.71232585 12.216736.7779932 9.83066366.7779932L9.83066366.7779932C8.68166274.773163349 7.57805185 1.22619323 6.76386233 2.03694736 5.9496728 2.84770148 5.49199087 3.94938696 5.49199087 5.09839819L5.49199087 5.09839819" fill="#405189" class="color000 svgShape"></path><line x1="12.796" x2="12.751" y1="9.602" y2="9.602"></line><line x1="6.966" x2="6.92" y1="9.602" y2="9.602"></line></g></svg></g></svg>